# xmcd
# 
# Track frame offsets:
#   150
#   17510
#   37457
#   52207
#   65989
#   82104
#   99836
#   114943
#   130737
#   150330
#   166914
#   181445
#   199171
#   215526
# 
# Disc length: 3056 seconds
# 
# Revision: 2
# Processed by: cddbd v1.5.1PL2 Copyright (c) Steve Scherf et al.
# Submitted via: Synapstar 1.0 
# 
DISCID=c40bee0e
DTITLE=Various Artist - SD086
DYEAR=1900
DGENRE=Country
TTITLE0=Dixie Chicks - Heartbrake Town
TTITLE1=Tim McGraw and Faith Hill - Angry All The Time
TTITLE2=Martina McBride - When God Fearin' Women Get The Blues
TTITLE3=Gary Allan - Man Of Me
TTITLE4=Kenny Chesney - Tin Man, The
TTITLE5=Alan Jackson - Where I Come From
TTITLE6=Clay Walker - If You Ever Feel LIke Lovin' Me Again
TTITLE7=Lonestar - Unusually Unusual
TTITLE8=Jeff Carson - Real Life
TTITLE9=Trace Adkins - I'm Tryin'
TTITLE10=Mark McGuinn - That's A Plan
TTITLE11=Tim Rushlow - Crazy Life
TTITLE12=Aaron Tippin - Always Was
TTITLE13=Terri Clark - Getting There
EXTD=MediaType: Karaoke CD+G Producer: StarDisc
EXTT0=
EXTT1=
EXTT2=
EXTT3=
EXTT4=
EXTT5=
EXTT6=
EXTT7=
EXTT8=
EXTT9=
EXTT10=
EXTT11=
EXTT12=
EXTT13=
PLAYORDER=
